# xmcd CD Database Entry
#
# Track frame offsets:
# 150
# 23600
# 37282
#
# Disc length: 672 seconds
#
# Revision: 2
# Processed by: cddbd v1.4PL0 Copyright (c) Steve Scherf et al.
# Submitted via: tcd 2.0b
#
DISCID=1e029e03
DTITLE=Butterfingers/Buttersingles
DYEAR=1900
DGENRE=
TTITLE0=Fire is a curse
TTITLE1=e
TTITLE2=Vio-pipe
EXTD=
EXTT0=
EXTT1=
EXTT2=
PLAYORDER=
